PathFileType	3	(X/Y/Z)	.\ExampleData\generated\LevelGround_ccw_fast_01.trc
DataRate	CameraRate	NumFrames	NumMarkers	Units	OrigDataRate	OrigDataStartFrame	OrigNumFrames
200.0	200.0	4	28	mm	200.0	2976	5952	
Frame#	Time	L_ASIS	R_ASIS	L_PSIS	R_PSIS	R_Thigh_Upper	R_Knee_Lat	R_Thigh_Front	R_Thigh_Rear	L_Thigh_Upper	L_Thigh_Front	L_Thigh_Rear	L_Knee_Lat	L_Shank_Upper	L_Shank_Front	L_Shank_Rear	L_Ankle_Lat	R_Shank_Upper	R_Shank_Rear	R_Shank_Front	R_Ankle_Lat	R_Heel	R_Toe_Tip	R_Toe_Med	R_Toe_Lat	L_Heel	L_Toe_Tip	L_Toe_Med	L_Toe_Lat	
		X1	Y1	Z1	X2	Y2	Z2	X3	Y3	Z3	X4	Y4	Z4	X5	Y5	Z5	X6	Y6	Z6	X7	Y7	Z7	X8	Y8	Z8	X9	Y9	Z9	X10	Y10	Z10	X11	Y11	Z11	X12	Y12	Z12	X13	Y13	Z13	X14	Y14	Z14	X15	Y15	Z15	X16	Y16	Z16	X17	Y17	Z17	X18	Y18	Z18	X19	Y19	Z19	X20	Y20	Z20	X21	Y21	Z21	X22	Y22	Z22	X23	Y23	Z23	X24	Y24	Z24	X25	Y25	Z25	X26	Y26	Z26	X27	Y27	Z27	X28	Y28	Z28	
2976	14.88	260.75394	992.43826	-477.15925	389.66025	1013.5765	-241.78342	135.86806	1036.856	-334.02808	200.66128	1049.0977	-226.73064	400.1548	836.41263	-143.50828	488.87876	529.90787	-157.15175	460.19818	794.28826	-185.61005	417.67304	772.08457	-134.5257	177.42704	833.6714	-484.58813	218.5796	765.33236	-494.77388	152.89629	764.82225	-459.5813	239.30293	464.9765	-441.20415	153.73358	341.08001	-436.52943	180.24125	280.98271	-425.931	123.23959	283.68518	-419.68676	123.62051	61.095626	-362.63259	489.04428	401.70435	-78.067078	467.40323	338.15249	-64.939112	521.75159	341.7062	-93.098418	535.70224	97.640499	-64.414711	467.9624	52.25092	-57.442727	642.55049	69.255515	-183.4988	629.30873	41.4313	-205.10806	645.31147	49.751666	-90.785384	74.662924	26.910356	-303.21784	281.17854	34.93095	-379.34341	293.02964	12.053497	-353.50471	203.02472	9.5333393	-435.18008
2977	14.885	262.18424	992.22629	-476.42191	393.48233	1013.4153	-242.34148	138.84925	1036.495	-332.03638	204.7403	1048.8254	-225.40527	405.25596	836.55082	-144.00407	493.87885	529.98706	-157.66501	464.83513	794.35149	-186.73986	422.89819	772.28845	-135.07386	178.76883	833.50065	-483.26505	219.76647	765.1354	-493.89575	154.35901	764.66703	-458.17678	240.73872	464.68995	-441.04047	154.86302	341.04402	-436.33118	181.16647	280.86363	-425.81325	125.30332	283.08775	-417.87436	123.66609	61.156032	-362.54599	495.7425	401.66845	-78.788843	474.62299	337.95516	-65.499833	528.54744	341.84697	-94.436843	544.41301	97.713923	-66.647828	476.88278	52.552148	-58.167075	648.78634	69.569177	-188.01951	635.02286	41.789255	-209.48828	653.47355	49.601448	-95.498854	74.707212	27.034658	-303.04572	281.1496	34.938258	-379.38478	292.98848	11.991093	-353.5707	202.96859	9.5396057	-435.16283
2978	14.89	263.62974	992.01229	-475.67256	397.33632	1013.2485	-242.91929	141.89354	1036.1241	-330.03104	208.85991	1048.556	-224.08515	410.34155	836.6792	-144.49579	498.85487	530.0398	-158.16749	469.49073	794.42236	-187.82271	428.09866	772.47048	-135.63358	180.11114	833.3307	-481.91205	220.94542	764.93174	-493.00265	155.8272	764.51456	-456.73483	242.13986	464.39957	-440.84445	155.97362	341.01598	-436.11883	182.07234	280.74729	-425.68694	127.27475	282.5297	-416.13527	123.71235	61.217863	-362.45257	502.28518	401.60045	-79.547362	481.6446	337.74336	-66.124802	535.15634	341.93943	-95.780162	552.74928	97.755321	-68.890371	485.44007	52.805699	-58.972635	654.68197	69.827265	-192.42072	640.41416	42.085995	-213.73399	661.2139	49.406379	-100.13327	74.755048	27.161436	-302.87034	281.11994	34.945728	-379.42643	292.95357	11.937239	-353.63259	202.91394	9.5507125	-435.14012
2979	14.895	265.09284	991.7971	-474.91157	401.22123	1013.0741	-243.51451	144.99641	1035.749	-328.01367	213.0192	1048.2891	-222.77126	415.40867	836.7928	-144.98117	503.80217	530.06258	-158.67263	474.1613	794.49283	-188.85604	433.2702	772.62535	-136.19975	181.45728	833.16395	-480.52999	222.12849	764.7204	-492.08947	157.30062	764.36711	-455.25579	243.5026	464.10565	-440.61182	157.06345	340.9974	-435.88986	182.95686	280.63396	-425.54913	129.11413	282.03153	-414.52215	123.76162	61.281747	-362.35004	508.68197	401.50044	-80.344545	488.47883	337.51776	-66.805628	541.58783	341.98298	-97.12952	560.72381	97.763381	-71.117088	493.64542	52.99799	-59.836413	660.25615	70.028191	-196.68061	645.5008	42.317391	-217.8248	668.55335	49.174329	-104.66039	74.805454	27.289065	-302.69343	281.08947	34.952499	-379.46777	292.92388	11.892008	-353.69001	202.86039	9.5658919	-435.11197
